PathFileType	4	(x/y/z)	S02_M20_T11
DataRate	CameraRate	NumFrames	NumMarkers	Units	OrigDataRate	OrigDataStartFrame	OrigNumFrames
240	240	10	51	mm	240	234	466
Frame#	Time	Sternum			R.Acromium			L.Acromium			Top.Head			R.ASIS			L.ASIS			R.PSIS			L.PSIS			R.Great.Tro			L.Great.Tro			R.Iliac.Crest			L.Iliac.Crest			V.Sacral			R.Thigh.Upper.Post			R.Thigh.Lower.Ant			R.Thigh.Lower.Post			R.Thigh.Upper.Ant			R.Knee.Lat			R.Knee.Med			R.Shank.Upper.Post			R.Shank.Lower.Ant			R.Shank.Lower.Post			R.Shank.Upper.Ant			R.Ankle.Lat			R.Ankle.Med			R.Heel.Upper			R.Heel.Med			R.Heel.Lat			R.Toe.Lat			R.Toe.Med			R.Toe.Tip			L.Thigh.Upper.Post			L.Thigh.Lower.Ant			L.Thigh.Lower.Post			L.Thigh.Upper.Ant			L.Knee.Lat			L.Knee.Med			L.Shank.Upper.Post			L.Shank.Lower.Ant			L.Shank.Lower.Post			L.Shank.Upper.Ant			L.Ankle.Lat			L.Ankle.Med			L.Heel.Upper			L.Heel.Med			L.Heel.Lat			L.Toe.Lat			L.Toe.Med			L.Toe.Tip			Cervical.Spine			Back			
		X1	Y1	Z1	X2	Y2	Z2	X3	Y3	Z3	X4	Y4	Z4	X5	Y5	Z5	X6	Y6	Z6	X7	Y7	Z7	X8	Y8	Z8	X9	Y9	Z9	X10	Y10	Z10	X11	Y11	Z11	X12	Y12	Z12	X13	Y13	Z13	X14	Y14	Z14	X15	Y15	Z15	X16	Y16	Z16	X17	Y17	Z17	X18	Y18	Z18	X19	Y19	Z19	X20	Y20	Z20	X21	Y21	Z21	X22	Y22	Z22	X23	Y23	Z23	X24	Y24	Z24	X25	Y25	Z25	X26	Y26	Z26	X27	Y27	Z27	X28	Y28	Z28	X29	Y29	Z29	X30	Y30	Z30	X31	Y31	Z31	X32	Y32	Z32	X33	Y33	Z33	X34	Y34	Z34	X35	Y35	Z35	X36	Y36	Z36	X37	Y37	Z37	X38	Y38	Z38	X39	Y39	Z39	X40	Y40	Z40	X41	Y41	Z41	X42	Y42	Z42	X43	Y43	Z43	X44	Y44	Z44	X45	Y45	Z45	X46	Y46	Z46	X47	Y47	Z47	X48	Y48	Z48	X49	Y49	Z49	X50	Y50	Z50	X51	Y51	Z51	

234	0.97083	-280.87	1116.9	293.97	-386.7	1340.4	452.31	-398.69	1360.4	161.36	-341.69	1632.9	326.23	-305	936.48	403.27	-303.76	931.52	189.17	-516.41	982.81	346.37	-520.43	986.41	272.96	-376.84	818.21	488.78	-424.84	835.48	103.82	-403.76	985.27	461.6	-427.64	982.39	126.18	-547.31	939.83	304.52	-369.93	612.73	457.07	-319.84	536.75	410.46	-388.54	527.18	434.27	-305.35	622.45	433.18	-371.36	451.01	409.58	-395.56	445.78	269.13	-479.6	255.91	393.42	-419.15	167.1	365.16	-483.85	183.32	379.86	-410.27	234.26	384.71	-483.64	92.12	361.13	-480.38	105.07	280.08	-550.22	79.426	309.2	-539.21	46.21	281.68	-545.56	48.95	345.86	-382.39	39.727	378.59	-356.17	32.266	269.64	-303.99	58.054	321.55	-377.75	607.49	116.39	-281.16	555.18	103.48	-347.36	522.79	132.75	-319.24	642.22	91.392	-280.68	471.07	112.55	-253.63	467.6	248.33	-414.28	341.43	138.33	-380.11	235.35	136.35	-439.72	274.44	154.45	-360.33	307.89	121.92	-454.65	155.01	158.61	-428.45	145.92	238.8	-515.55	139.99	209.61	-506.17	113.05	241.8	-525.66	111.25	183.48	-383.02	50.839	118.37	-334.76	56.429	217.01	-285.23	54.488	157.82	-468.72	1407	315.7	-540.61	1154.4	313.43
235	0.975	-276.21	1117.1	294.13	-381.55	1340.8	452.21	-394.16	1360.5	161.36	-336.59	1632.9	326.06	-300.8	936.49	403.79	-298.66	931.92	189.74	-511.95	982.78	345.8	-515.65	986.48	272.39	-373.2	818.04	488.83	-418.87	836	103.31	-399.84	985.26	461.63	-422.3	982.84	126.12	-542.63	939.84	303.74	-368.01	612.6	457.11	-318.4	536.12	410.78	-387.29	527.2	434.27	-303.16	621.7	433.53	-370.79	450.85	409.63	-394.45	445.7	269.11	-479.3	256.03	393.36	-419.04	167.11	365.09	-483.68	183.43	379.77	-410.03	234.24	384.67	-483.58	92.197	361.03	-480.3	105.17	280	-550.17	79.507	309.08	-539.2	46.251	281.6	-545.54	49.065	345.78	-382.39	39.724	378.56	-356.2	32.245	269.65	-303.96	58.029	321.56	-370.69	607.92	116.12	-273.62	556.32	103.87	-339.74	523.45	132.72	-312.3	643.05	91.415	-272.52	472.14	113.06	-245.98	469.02	248.88	-403.07	339.12	138.5	-366.16	233.98	136.24	-426.68	271.48	154.46	-348.33	307.02	121.99	-438.61	151.69	158.22	-412.01	142.93	238.43	-499	134.94	209.34	-488.86	108.12	241.42	-508.42	106.04	183.12	-364.43	49.456	117.58	-316.06	55.94	216.17	-266.65	55.444	156.85	-463.82	1407.1	315.76	-535.91	1154.5	313.63
236	0.97917	-271.54	1117.2	294.3	-376.38	1341.1	452.1	-389.62	1360.6	161.34	-331.48	1632.9	325.88	-296.6	936.44	404.28	-293.56	932.23	190.27	-507.49	982.69	345.24	-510.88	986.49	271.82	-369.58	817.85	488.87	-412.91	836.46	102.78	-395.91	985.21	461.65	-416.95	983.21	126.06	-537.94	939.78	302.97	-366.09	612.46	457.16	-316.96	535.5	411.11	-386.04	527.22	434.28	-300.99	620.94	433.89	-370.22	450.69	409.69	-393.33	445.6	269.09	-479.01	256.14	393.3	-418.94	167.11	365.03	-483.51	183.55	379.68	-409.81	234.22	384.65	-483.53	92.27	360.93	-480.22	105.26	279.92	-550.12	79.583	308.95	-539.18	46.291	281.53	-545.51	49.175	345.7	-382.39	39.716	378.53	-356.24	32.221	269.68	-303.93	58.004	321.58	-363.69	608.28	115.86	-266.17	557.38	104.28	-332.22	524.03	132.71	-305.42	643.81	91.456	-264.46	473.14	113.58	-238.45	470.34	249.47	-391.84	336.8	138.64	-352.19	232.66	136.13	-413.59	268.52	154.47	-336.33	306.17	122.06	-422.49	148.46	157.82	-395.5	140.05	238.04	-482.31	129.98	209.04	-471.44	103.33	241.02	-491.03	100.97	182.73	-345.77	48.225	116.82	-297.37	55.617	215.36	-248.08	56.557	155.94	-458.9	1407.2	315.8	-531.21	1154.7	313.81
237	0.98333	-266.87	1117.3	294.46	-371.21	1341.4	451.98	-385.07	1360.6	161.32	-326.36	1632.8	325.68	-292.39	936.31	404.74	-288.47	932.47	190.77	-503.03	982.56	344.67	-506.11	986.46	271.24	-365.98	817.63	488.9	-406.97	836.85	102.24	-391.97	985.11	461.67	-411.6	983.51	125.98	-533.25	939.68	302.19	-364.17	612.33	457.21	-315.51	534.88	411.45	-384.76	527.23	434.3	-298.84	620.19	434.23	-369.65	450.52	409.76	-392.21	445.48	269.09	-478.72	256.25	393.23	-418.86	167.11	364.98	-483.35	183.66	379.59	-409.6	234.19	384.63	-483.48	92.34	360.83	-480.14	105.35	279.85	-550.08	79.654	308.83	-539.16	46.33	281.47	-545.49	49.283	345.62	-382.39	39.704	378.5	-356.27	32.198	269.7	-303.89	57.982	321.6	-356.77	608.59	115.63	-258.81	558.35	104.71	-324.81	524.55	132.72	-298.6	644.48	91.516	-256.51	474.07	114.12	-231.04	471.57	250.08	-380.6	334.45	138.75	-338.19	231.4	136.02	-400.46	265.59	154.45	-324.33	305.32	122.12	-406.28	145.33	157.4	-378.95	137.3	237.65	-465.47	125.15	208.7	-453.92	98.692	240.6	-473.52	96.029	182.31	-327.06	47.156	116.09	-278.69	55.471	214.6	-229.53	57.837	155.1	-453.98	1407.2	315.84	-526.51	1154.8	313.97
238	0.9875	-262.19	1117.3	294.62	-366.03	1341.6	451.85	-380.5	1360.6	161.29	-321.25	1632.7	325.47	-288.17	936.12	405.16	-283.37	932.63	191.23	-498.56	982.38	344.1	-501.33	986.36	270.67	-362.4	817.39	488.92	-401.04	837.18	101.7	-388.01	984.96	461.69	-406.24	983.74	125.9	-528.56	939.54	301.43	-362.24	612.19	457.26	-314.06	534.27	411.8	-383.48	527.24	434.33	-296.68	619.45	434.56	-369.08	450.35	409.85	-391.08	445.36	269.11	-478.44	256.36	393.16	-418.79	167.11	364.94	-483.2	183.77	379.49	-409.4	234.17	384.62	-483.43	92.406	360.73	-480.07	105.42	279.77	-550.04	79.72	308.7	-539.12	46.368	281.4	-545.47	49.388	345.53	-382.39	39.688	378.47	-356.29	32.174	269.72	-303.86	57.96	321.62	-349.91	608.82	115.41	-251.55	559.22	105.16	-317.49	524.98	132.75	-291.84	645.07	91.597	-248.66	474.92	114.67	-223.75	472.7	250.73	-369.34	332.08	138.84	-324.18	230.22	135.92	-387.28	262.68	154.42	-312.34	304.49	122.19	-389.98	142.33	156.96	-362.36	134.69	237.24	-448.51	120.44	208.32	-436.31	94.219	240.15	-455.88	91.24	181.85	-308.31	46.258	115.4	-260.03	55.511	213.9	-211.02	59.292	154.34	-449.05	1407.2	315.86	-521.82	1154.8	314.12
239	0.99167	-257.51	1117.2	294.77	-360.83	1341.7	451.7	-375.93	1360.5	161.24	-316.13	1632.5	325.24	-283.93	935.86	405.55	-278.26	932.71	191.66	-494.08	982.16	343.53	-496.54	986.22	270.09	-358.85	817.12	488.93	-395.12	837.44	101.16	-384.03	984.77	461.7	-400.89	983.89	125.8	-523.86	939.34	300.67	-360.31	612.05	457.31	-312.59	533.67	412.14	-382.17	527.25	434.37	-294.54	618.71	434.87	-368.49	450.18	409.95	-389.96	445.22	269.15	-478.17	256.47	393.09	-418.73	167.11	364.9	-483.06	183.88	379.39	-409.21	234.15	384.62	-483.39	92.47	360.62	-480	105.48	279.69	-550	79.784	308.57	-539.08	46.406	281.34	-545.45	49.492	345.45	-382.39	39.668	378.44	-356.32	32.15	269.74	-303.82	57.94	321.65	-343.12	608.98	115.22	-244.39	560	105.63	-310.26	525.34	132.79	-285.14	645.57	91.7	-240.91	475.68	115.23	-216.59	473.72	251.39	-358.06	329.72	138.9	-310.17	229.11	135.83	-374.06	259.81	154.37	-300.36	303.69	122.25	-373.61	139.45	156.51	-345.74	132.22	236.82	-431.43	115.88	207.9	-418.61	89.921	239.67	-438.13	86.61	181.36	-289.51	45.543	114.75	-241.41	55.75	213.25	-192.55	60.933	153.66	-444.11	1407.1	315.88	-517.13	1154.8	314.24
240	0.99583	-252.82	1117	294.92	-355.63	1341.8	451.54	-371.35	1360.3	161.19	-311	1632.3	324.99	-279.68	935.54	405.91	-273.15	932.71	192.05	-489.6	981.89	342.96	-491.74	986.03	269.52	-355.31	816.84	488.92	-389.22	837.64	100.62	-380.03	984.52	461.69	-395.52	983.95	125.68	-519.15	939.1	299.91	-358.36	611.91	457.36	-311.12	533.07	412.48	-380.85	527.27	434.43	-292.4	617.98	435.17	-367.89	450.01	410.06	-388.84	445.07	269.2	-477.9	256.58	393.02	-418.68	167.11	364.88	-482.93	183.99	379.29	-409.03	234.13	384.62	-483.35	92.532	360.52	-479.93	105.54	279.62	-549.96	79.846	308.44	-539.04	46.444	281.29	-545.44	49.596	345.36	-382.39	39.645	378.41	-356.33	32.127	269.76	-303.79	57.921	321.67	-336.39	609.08	115.04	-237.31	560.67	106.12	-303.14	525.62	132.86	-278.51	645.98	91.826	-233.26	476.37	115.8	-209.55	474.64	252.09	-346.76	327.35	138.93	-296.15	228.08	135.74	-360.79	256.98	154.3	-288.39	302.93	122.31	-357.17	136.71	156.04	-329.1	129.91	236.4	-414.24	111.46	207.44	-400.85	85.807	239.17	-420.28	82.148	180.83	-270.69	45.02	114.15	-222.83	56.197	212.66	-174.13	62.769	153.07	-439.17	1407	315.89	-512.45	1154.8	314.35
241	1	-248.12	1116.8	295.07	-350.42	1341.8	451.36	-366.75	1360	161.13	-305.87	1632	324.72	-275.41	935.16	406.24	-268.03	932.63	192.4	-485.1	981.57	342.39	-486.93	985.78	268.94	-351.79	816.54	488.9	-383.33	837.76	100.08	-376	984.23	461.68	-390.16	983.94	125.55	-514.43	938.82	299.16	-356.4	611.77	457.41	-309.63	532.49	412.81	-379.5	527.27	434.49	-290.26	617.26	435.45	-367.26	449.84	410.19	-387.73	444.92	269.27	-477.64	256.7	392.95	-418.64	167.11	364.87	-482.81	184.11	379.19	-408.84	234.11	384.65	-483.31	92.592	360.42	-479.86	105.6	279.54	-549.93	79.907	308.31	-538.99	46.482	281.23	-545.42	49.699	345.28	-382.4	39.619	378.38	-356.34	32.104	269.78	-303.75	57.903	321.7	-329.74	609.1	114.89	-230.33	561.25	106.63	-296.11	525.82	132.94	-271.93	646.3	91.974	-225.71	476.98	116.38	-202.63	475.44	252.81	-335.45	325	138.93	-282.14	227.15	135.65	-347.49	254.21	154.21	-276.43	302.2	122.37	-340.67	134.11	155.56	-312.46	127.77	235.97	-396.96	107.21	206.94	-383.02	81.885	238.64	-402.33	77.864	180.28	-251.84	44.7	113.6	-204.31	56.862	212.15	-155.77	64.81	152.57	-434.21	1406.8	315.88	-507.76	1154.6	314.44
242	1.0042	-243.42	1116.5	295.2	-345.2	1341.7	451.18	-362.15	1359.7	161.06	-300.73	1631.7	324.44	-271.13	934.73	406.53	-262.91	932.48	192.71	-480.58	981.21	341.81	-482.11	985.48	268.37	-348.28	816.23	488.86	-377.46	837.81	99.558	-371.96	983.89	461.65	-384.78	983.83	125.4	-509.71	938.49	298.41	-354.41	611.62	457.46	-308.14	531.91	413.14	-378.12	527.28	434.56	-288.11	616.55	435.7	-366.62	449.67	410.33	-386.63	444.75	269.35	-477.38	256.81	392.88	-418.58	167.11	364.88	-482.7	184.23	379.08	-408.66	234.1	384.68	-483.28	92.652	360.33	-479.78	105.65	279.47	-549.89	79.968	308.18	-538.94	46.52	281.17	-545.41	49.803	345.19	-382.4	39.592	378.36	-356.33	32.08	269.8	-303.71	57.885	321.73	-323.15	609.04	114.76	-223.44	561.73	107.15	-289.17	525.93	133.04	-265.41	646.53	92.146	-218.24	477.51	116.97	-195.83	476.14	253.56	-324.12	322.66	138.89	-268.13	226.32	135.58	-334.17	251.5	154.08	-264.49	301.51	122.42	-324.12	131.66	155.07	-295.82	125.8	235.53	-379.6	103.14	206.4	-365.15	78.164	238.08	-384.29	73.765	179.69	-232.98	44.593	113.1	-185.86	57.752	211.71	-137.49	67.065	152.18	-429.25	1406.5	315.87	-503.07	1154.5	314.51
243	1.0083	-238.71	1116.2	295.32	-339.97	1341.6	450.97	-357.53	1359.3	160.98	-295.59	1631.3	324.13	-266.82	934.24	406.8	-257.77	932.24	193	-476.06	980.81	341.24	-477.28	985.13	267.8	-344.78	815.89	488.82	-371.6	837.79	99.049	-367.9	983.5	461.61	-379.4	983.65	125.23	-504.98	938.13	297.66	-352.41	611.47	457.5	-306.63	531.34	413.44	-376.72	527.29	434.64	-285.96	615.85	435.92	-365.94	449.51	410.48	-385.53	444.59	269.45	-477.12	256.93	392.81	-418.53	167.11	364.9	-482.59	184.35	378.98	-408.48	234.08	384.72	-483.25	92.712	360.23	-479.71	105.71	279.4	-549.86	80.029	308.06	-538.89	46.56	281.12	-545.4	49.908	345.1	-382.41	39.564	378.33	-356.31	32.056	269.81	-303.68	57.867	321.76	-316.63	608.91	114.65	-216.64	562.11	107.69	-282.32	525.97	133.16	-258.96	646.67	92.342	-210.87	477.96	117.56	-189.15	476.73	254.34	-312.78	320.35	138.82	-254.15	225.59	135.51	-320.82	248.87	153.93	-252.57	300.87	122.48	-307.53	129.37	154.57	-279.2	124.01	235.08	-362.19	99.244	205.82	-347.24	74.648	237.5	-366.19	69.86	179.07	-214.12	44.709	112.66	-167.49	58.876	211.34	-119.3	69.542	151.89	-424.28	1406.2	315.85	-498.38	1154.3	314.56
